<svg data-v-0dd9719b="" version="1.0" xmlns="http://www.w3.org/2000/svg" xmlns:xlink="http://www.w3.org/1999/xlink" width="100%" height="100%" viewBox="0 0 340.000000 250.000000" preserveAspectRatio="xMidYMid meet" color-interpolation-filters="sRGB" style="margin: auto;"> <rect data-v-0dd9719b="" x="0" y="0" width="100%" height="100%" fill="#fff" fill-opacity="1" class="background"></rect> <rect data-v-0dd9719b="" x="0" y="0" width="100%" height="100%" fill="url(#watermark)" fill-opacity="1" class="watermarklayer"></rect> <g data-v-0dd9719b="" fill="#f39800" class="icon-text-wrapper icon-svg-group iconsvg" transform="translate(47.920005798339844,95.30232238769531)"><g class="iconsvg-imagesvg" transform="translate(0,0)"><g><rect fill="#f39800" fill-opacity="0" stroke-width="2" x="0" y="0" width="60" height="59.39535528321685" class="image-rect"></rect> <svg x="0" y="0" width="60" height="59.39535528321685" filtersec="colorsb3344302676" class="image-svg-svg primary" style="overflow: visible;"><svg xmlns="http://www.w3.org/2000/svg" viewBox="-0.022954659536480904 0.03987249359488487 53.185115814208984 52.64915466308594"><g><g fill-rule="evenodd"><path d="M11.36 51.43c5.76-6 14.83-15.33 22.1-22.84l-7-5.06c-7 7.2-15.83 16.29-21.31 22a4.28 4.28 0 0 0 .14 6 4.28 4.28 0 0 0 6-.14" fill="#f39800"></path><path d="M15.26 9.17L41.08 28C35.9 33.3 29.8 39.55 25.9 43.63a3.37 3.37 0 0 0 .1 4.75 3.37 3.37 0 0 0 4.75-.11C36.08 42.71 45 33.58 51 27.35l1.2-1.26.28-.3c.94-1 1-1.75-.4-2.73C42.08 15.84 31.47 8.42 21.22 1a5.09 5.09 0 0 0-7.08 1.12 5.09 5.09 0 0 0 1.12 7.08" fill="#a30c5b"></path><path d="M3.71 12C8.16 15.47 14.47 20.27 19 23.82c.61.47.61.52.09 1.06-4 4.18-9.56 9.86-13.46 13.95a2.31 2.31 0 0 1-3.25.07 2.3 2.3 0 0 1-.07-3.25c3-3.11 7-7.28 10.47-10.84-3.92-3-8.53-6.54-11.92-9.19a2.31 2.31 0 0 1-.4-3.23A2.31 2.31 0 0 1 3.71 12" fill="#a30c5b"></path></g></g></svg></svg> <!----></g></g> <g transform="translate(67,0.8214282989501953)"><g data-gra="path-name" fill-rule="" class="tp-name iconsvg-namesvg" transform="translate(0,0)"><g transform="scale(1)"><g><path d="M5.76 4.5L5.76 4.5Q5.08 3.65 3.67 2.38 2.25 1.13 1.35 0.54L1.35 0.54Q4.23-2.83 5.31-8.32L5.31-8.32Q6.03-11.97 6.03-17.77L6.03-17.77 6.03-31.54 21.96-31.54Q21.29-34.56 20.38-37.3L20.38-37.3 26.05-38.3Q27.22-35.28 28.08-31.54L28.08-31.54 42.39-31.54 42.39-26.32 11.79-26.32 11.79-17.68Q11.79-2.25 5.76 4.5ZM50.94 3.87L50.94 3.87Q50.35 2.92 49.14 1.67L49.14 1.67Q48.02 0.4 47.07-0.32L47.07-0.32Q52.06-4.46 53.95-11.12L53.95-11.12Q55.26-15.79 55.26-23.13L55.26-23.13 55.26-37.35 60.57-37.35 60.57-24.88 64.03-26.32Q66.91-19.8 67.63-14.94L67.63-14.94 63.09-12.82Q62.55-17.05 60.57-22.68L60.57-22.68Q60.52-14.08 58.95-8.59L58.95-8.59Q56.7-0.9 50.94 3.87ZM86 3.42L80.64 3.42 80.64-15.43 76.63-13.23Q75.78-17.32 72.99-23.22L72.99-23.22 72.99 0.94 67.77 0.94 67.77-36.36 72.99-36.36 72.99-25.02 76.28-26.64Q79.2-21.42 80.64-16.79L80.64-16.79 80.64-37.53 86-37.53 86 3.42ZM50.63-12.82L50.63-12.82 45.99-14.71Q48.38-18.99 49.45-27.18L49.45-27.18 54.05-26.01Q52.6-16.52 50.63-12.82ZM123.84 3.46Q121.72 3.69 116.78 3.46L116.78 3.46Q116.59 0.81 115.06-1.4L115.06-1.4Q118.31-1.08 121.81-1.08L121.81-1.08Q123.12-1.08 123.88-1.71L123.88-1.71Q125.59-3.24 126.67-13.9L126.67-13.9 107.14-13.95 105.53-13.95Q106.47-19.17 107.1-28.26L107.1-28.26 112.5-27.95Q111.96-22 111.56-18.86L111.56-18.86 121.77-18.86Q122.49-24.52 123.03-30.55L123.03-30.55 104.13-30.55 104.13-35.73 123.93-35.73 124.83-35.95 128.75-35.59Q128.34-29.43 127.08-18.86L127.08-18.86 132.3-18.86Q132.21-17.77 132.12-16.65L132.12-16.65Q131.4-8.14 130.45-3.92L130.45-3.92Q129.56 0.18 128.2 1.57L128.2 1.57Q126.77 3.19 123.84 3.46L123.84 3.46ZM96.61 1.67L96.61 1.67 91.13-0.58Q95-8.19 97.97-16.92L97.97-16.92 102.83-14.63Q100.03-6.43 96.61 1.67ZM124.38-5.58L103.14-5.58 103.14-10.53 124.38-10.53 124.38-5.58ZM103.09-23.8L97.78-21.38Q96.34-26.01 91.67-34.02L91.67-34.02 96.57-36.05Q101.43-28.3 103.09-23.8L103.09-23.8ZM147.1 3.87L142.02 3.87 142.02-38.07 147.1-38.07 147.1-29.52 150.21-30.55Q151.6-27.49 152.24-24.43L152.24-24.43 152.24-35.68 157.23-35.68 157.23-28.71 161.69-28.71 161.69-38.12 166.86-38.12 166.86-28.71 171.09-28.71 171.09-35.68 176.26-35.68 176.26-24.34 152.28-24.34Q152.46-23.4 152.55-22.5L152.55-22.5 148.81-21.15Q148.68-24.21 147.1-28.57L147.1-28.57 147.1 3.87ZM171 3.06L160.88 3.06Q155.93 3.06 154.13 1.75 152.32 0.45 152.32-3.24L152.32-3.24 152.32-12.33 170.64-12.33 170.64-16.38 152.1-16.38 152.1-20.97 175.86-20.97 175.86-7.69 157.59-7.69 157.59-3.38Q157.59-2.25 158.26-1.91 158.94-1.57 161.28-1.57L161.28-1.57 170.59-1.57Q172.39-1.57 172.94-2.29 173.47-3.01 173.7-5.58L173.7-5.58Q175.41-4.46 178.51-3.78L178.51-3.78Q178.02 0.32 176.49 1.69 174.96 3.06 171 3.06L171 3.06ZM140.26-16.34L140.26-16.34 136.22-17.64Q137.47-22.36 137.75-29.25L137.75-29.25 141.62-28.8Q141.62-26.05 141.23-22.48 140.85-18.9 140.26-16.34Z" transform="translate(-1.350000023841858, 38.29999923706055)"></path></g> <!----> <!----> <!----> <!----> <!----> <!----> <!----></g></g> <g data-gra="path-slogan" fill-rule="" class="tp-slogan iconsvg-slogansvg" fill="#f39800" transform="translate(5.000007629394531,48.79999923706055)"><rect x="0" height="1" y="3.9750003814697266" width="14.649436950683594"></rect> <rect height="1" y="3.9750003814697266" width="14.649436950683594" x="152.51055145263672"></rect> <g transform="translate(17.649436950683594,0)"><g transform="scale(1)"><path d="M7.31-3.61L4.69-3.61L4.69-4.59L8.44-4.59L8.44 0L7.69 0L7.41-1.08Q6.42 0.09 4.59 0.14L4.59 0.14Q2.86 0.14 1.92-0.75L1.92-0.75Q0.52-2.06 0.56-4.36L0.56-4.36Q0.89-8.63 4.64-8.81L4.64-8.81Q7.83-8.63 8.30-6L8.30-6L7.17-6Q6.70-7.78 4.59-7.83L4.59-7.83Q1.92-7.64 1.78-4.31L1.78-4.31Q1.78-0.75 4.64-0.75L4.64-0.75Q5.67-0.75 6.42-1.31L6.42-1.31Q7.36-2.06 7.31-3.61L7.31-3.61ZM15.89-3.19L15.89-8.58L17.06-8.58L17.06-3.05Q16.92 0.05 13.55 0.14L13.55 0.14Q10.41 0.05 10.27-2.86L10.27-2.86L10.27-8.58L11.44-8.58L11.44-3.19Q11.48-0.84 13.59-0.80L13.59-0.80Q15.89-0.84 15.89-3.19L15.89-3.19ZM24.52 0L23.67-2.48L20.20-2.48L19.31 0L18.14 0L21.38-8.58L22.69-8.58L25.78 0L24.52 0ZM21.94-7.31L20.58-3.52L23.25-3.52L21.98-7.31L21.94-7.31ZM28.22-8.58L32.53-1.64L32.53-8.58L33.66-8.58L33.66 0L32.34 0L27.98-6.94L27.94-6.94L27.94 0L26.81 0L26.81-8.58L28.22-8.58ZM41.86-3.61L39.23-3.61L39.23-4.59L42.98-4.59L42.98 0L42.23 0L41.95-1.08Q40.97 0.09 39.14 0.14L39.14 0.14Q37.41 0.14 36.47-0.75L36.47-0.75Q35.06-2.06 35.11-4.36L35.11-4.36Q35.44-8.63 39.19-8.81L39.19-8.81Q42.38-8.63 42.84-6L42.84-6L41.72-6Q41.25-7.78 39.14-7.83L39.14-7.83Q36.47-7.64 36.33-4.31L36.33-4.31Q36.33-0.75 39.19-0.75L39.19-0.75Q40.22-0.75 40.97-1.31L40.97-1.31Q41.91-2.06 41.86-3.61L41.86-3.61ZM45.61-1.03L50.91-1.03L50.91 0L44.16 0L44.16-0.94L49.41-7.59L44.53-7.59L44.53-8.58L50.91-8.58L50.91-7.59L45.61-1.03ZM53.20-5.06L57.70-5.06L57.70-8.58L58.88-8.58L58.88 0L57.70 0L57.70-3.98L53.20-3.98L53.20 0L52.03 0L52.03-8.58L53.20-8.58L53.20-5.06ZM67.45-4.27L67.45-4.27Q67.27-7.64 64.45-7.83L64.45-7.83Q61.59-7.69 61.45-4.27L61.45-4.27Q61.59-0.94 64.45-0.80L64.45-0.80Q67.27-0.98 67.45-4.27ZM68.63-4.27L68.63-4.27Q68.34 0 64.45 0.14L64.45 0.14Q60.52 0 60.23-4.27L60.23-4.27Q60.47-8.72 64.45-8.81L64.45-8.81Q68.34-8.67 68.63-4.27ZM75.66-3.19L75.66-8.58L76.83-8.58L76.83-3.05Q76.69 0.05 73.31 0.14L73.31 0.14Q70.17 0.05 70.03-2.86L70.03-2.86L70.03-8.58L71.20-8.58L71.20-3.19Q71.25-0.84 73.36-0.80L73.36-0.80Q75.66-0.84 75.66-3.19L75.66-3.19ZM87.47-3.89L83.25-3.89L83.25 0L82.08 0L82.08-8.58L88.03-8.58L88.03-7.59L83.25-7.59L83.25-4.92L87.47-4.92L87.47-3.89ZM90.52-1.03L95.67-1.03L95.67 0L89.34 0L89.34-8.58L95.58-8.58L95.58-7.59L90.52-7.59L90.52-4.92L95.20-4.92L95.20-3.89L90.52-3.89L90.52-1.03ZM98.58-8.58L102.89-1.64L102.89-8.58L104.02-8.58L104.02 0L102.70 0L98.34-6.94L98.30-6.94L98.30 0L97.17 0L97.17-8.58L98.58-8.58ZM112.22-3.61L109.59-3.61L109.59-4.59L113.34-4.59L113.34 0L112.59 0L112.31-1.08Q111.33 0.09 109.50 0.14L109.50 0.14Q107.77 0.14 106.83-0.75L106.83-0.75Q105.42-2.06 105.47-4.36L105.47-4.36Q105.80-8.63 109.55-8.81L109.55-8.81Q112.73-8.63 113.20-6L113.20-6L112.08-6Q111.61-7.78 109.50-7.83L109.50-7.83Q106.83-7.64 106.69-4.31L106.69-4.31Q106.69-0.75 109.55-0.75L109.55-0.75Q110.58-0.75 111.33-1.31L111.33-1.31Q112.27-2.06 112.22-3.61L112.22-3.61ZM117.66-4.31L116.30-3.05L116.30 0L115.13 0L115.13-8.58L116.30-8.58L116.30-4.41L120.47-8.58L122.11-8.58L118.50-5.11L122.20 0L120.66 0L117.66-4.31ZM128.77 0L127.92-2.48L124.45-2.48L123.56 0L122.39 0L125.63-8.58L126.94-8.58L130.03 0L128.77 0ZM126.19-7.31L124.83-3.52L127.50-3.52L126.23-7.31L126.19-7.31ZM131.25-8.58L132.42-8.58L132.42 0L131.25 0L131.25-8.58Z" transform="translate(-0.5609879032258065, 8.8125)"></path></g></g></g></g></g><defs v-gra="od"></defs></svg>